<?xml version="1.0" encoding="UTF-8"?>
<svg id="Ebene_1" xmlns="http://www.w3.org/2000/svg" version="1.1" viewBox="205.2 265.9 444.1 76.2">
  <!-- Generator: Adobe Illustrator 29.4.0, SVG Export Plug-In . SVG Version: 2.1.0 Build 152)  -->
  <defs>
    <style>
      .st0 {
        fill: #ffffff;
      }
    </style>
  </defs>
  <polygon class="st0" points="237.4 266.7 205.2 266.7 205.2 273.8 217.7 273.8 217.7 341.9 224.9 341.9 224.9 273.8 237.4 273.8 237.4 266.7"/>
  <rect class="st0" x="287.9" y="266.7" width="7.1" height="75.3"/>
  <polygon class="st0" points="347.9 266.7 347.9 326.9 314.4 266.7 307.2 266.7 307.2 341.9 314.4 341.9 314.4 281.3 347.9 341.6 347.9 341.9 355.1 341.9 355.1 266.7 347.9 266.7"/>
  <polygon class="st0" points="439.2 274 439.2 267 409.8 267 409.8 341.9 439.2 341.9 439.2 334.9 416.7 334.9 416.7 300.7 432.6 300.7 432.6 293.7 416.7 293.7 416.7 274 439.2 274"/>
  <polygon class="st0" points="523.7 267 523.7 293.8 496.6 293.8 496.6 267 489.6 267 489.6 341.9 496.6 341.9 496.6 300.9 523.7 300.9 523.7 341.9 530.7 341.9 530.7 267 523.7 267"/>
  <polygon class="st0" points="649.3 273.9 649.3 267 619.9 267 619.9 341.9 626.8 341.9 626.8 300.9 642.8 300.9 642.8 294 626.8 294 626.8 273.9 649.3 273.9"/>
  <path class="st0" d="M383.3,342c-9.5,0-17-5.8-21.7-16.9l-1.2-2.8,6.6-2.8,1.2,2.8c3.5,8.3,8.6,12.5,15.1,12.5s12.9-5.8,12.9-12.9-1.6-6.5-2.4-7.5c-3.4-4.4-8.5-8.2-13.8-12.3-2.1-1.6-4.2-3.2-6.4-5h-.1c-5.9-4.9-7.4-10.2-7.5-13.9-.2-4.4,1.5-8.7,4.6-11.9,3.2-3.4,7.8-5.3,12.5-5.3,7.5,0,12.8,5.9,16.1,9.4l1.6,1.8-5.4,4.7-1.6-1.8c-3.3-3.7-6.7-7-10.7-7s-5.4,1.1-7.3,3.1c-1.8,1.9-2.7,4.2-2.6,6.7.2,4.8,3.7,7.6,4.8,8.5h.1c2.1,1.8,4.2,3.4,6.2,4.9,5.7,4.4,11.1,8.5,15.1,13.6,1.9,2.5,3.9,7.6,3.9,11.9,0,11.1-9,20.1-20.1,20.1Z"/>
  <path class="st0" d="M281.9,341.9l-24.5-35.3h4.4c11,0,20-9,20-20s-9-20-20-20h-19.2v75.3h7.1v-33.8l23.7,33.8h8.5ZM274.9,286.7c0,7.2-5.9,13.1-13.1,13.1h-12.1v-26.2h12.1c7.2,0,13.1,5.9,13.1,13.1Z"/>
  <path class="st0" d="M484.5,341.9l-24.5-35.3h4.4c11,0,20-9,20-20s-9-20-20-20h-19.2v75.3h7.1v-33.8l23.7,33.8h8.5ZM477.5,286.7c0,7.2-5.9,13.1-13.1,13.1h-12.1v-26.2h12.1c7.2,0,13.1,5.9,13.1,13.1Z"/>
  <path class="st0" d="M575.9,342.1c-21,0-38.1-17.1-38.1-38.1s17.1-38.1,38.1-38.1,38.1,17.1,38.1,38.1-17.1,38.1-38.1,38.1ZM575.9,272.8c-17.2,0-31.2,14-31.2,31.2s14,31.2,31.2,31.2,31.2-14,31.2-31.2-14-31.2-31.2-31.2Z"/>
</svg>